<?xml version="1.0" encoding="iso-8859-1"?>
<!-- Generator: Adobe Illustrator 19.0.0, SVG Export Plug-In . SVG Version: 6.00 Build 0)  -->
<svg xmlns="http://www.w3.org/2000/svg" xmlns:xlink="http://www.w3.org/1999/xlink" version="1.1" id="Layer_1" x="0px" y="0px" viewBox="0 0 512 512" style="enable-background:new 0 0 512 512;" xml:space="preserve" width="512" height="512">
<g>
	<circle style="fill:#FFDA2D;" cx="256" cy="256" r="256"/>
	<path style="fill:#FDBF00;" d="M511.009,278.454L324.172,91.617L212.228,203.561l19.26,19.26l-45.99,45.99l56.383,56.383   l-103.88,103.88l80.133,80.133C230.491,511.04,243.133,512,256,512C389.817,512,499.634,409.32,511.009,278.454z"/>
	<g>
		<g>
			<path style="fill:#4BB9EC;" d="M374,374.727v54.352h-85.818l-21.455-21.455h-21.455l-21.455,21.455H138v-54.352     c0-29.607,24.029-53.636,53.636-53.636h5.793L256,370.007l58.57-48.916h5.793C349.971,321.091,374,345.12,374,374.727z"/>
		</g>
		<path style="fill:#0095FF;" d="M374,374.727v54.352h-85.818l-21.455-21.455H256v-37.618l58.57-48.916h5.793    C349.971,321.091,374,345.12,374,374.727z"/>
		<path style="fill:#7C8388;" d="M351.901,149.455C346.538,101.182,305.56,62.921,256,62.921s-90.538,38.261-95.901,86.533    c-0.43,3.432-0.644,7.079-0.644,10.727v10.727l77.665,21.455l29.607-14.804v14.804l85.818-21.455v-10.727    C352.545,156.534,352.331,152.887,351.901,149.455z"/>
		<path style="fill:#575F64;" d="M352.545,160.182v10.727l-85.818,21.455V177.56L256,182.924V62.921    c49.56,0,90.538,38.261,95.901,86.533C352.331,152.887,352.545,156.534,352.545,160.182z"/>
		<polygon style="fill:#FCCED3;" points="288.182,278.182 288.182,321.091 256,364 223.818,321.091 223.818,278.182   "/>
		<polygon style="fill:#FAAAAA;" points="288.182,278.182 288.182,321.091 256,364 256,278.182   "/>
		<path style="fill:#FDE4E4;" d="M352.545,170.909v32.182c0,53.207-43.339,96.545-96.545,96.545s-96.545-43.339-96.545-96.545    v-32.182h77.665l29.607-14.804v14.804H352.545z"/>
		<path style="fill:#FCCED3;" d="M352.545,170.909v32.182c0,53.207-43.339,96.545-96.545,96.545V161.469l10.727-5.364v14.804    H352.545z"/>
		<rect x="288.182" y="364" style="fill:#D3D3D8;" width="42.909" height="21.455"/>
		<polygon style="fill:#7C8388;" points="288.182,429.079 223.818,429.079 256,364   "/>
		<polygon style="fill:#575F64;" points="256,364 288.182,429.079 256,429.079   "/>
		<path style="fill:#FCCED3;" d="M293.975,241.065c-10.084,10.084-23.601,15.663-37.975,15.663s-27.891-5.578-37.975-15.663    l15.233-15.232c6.007,6.007,14.374,9.225,22.742,9.225s16.735-3.219,22.742-9.225L293.975,241.065z"/>
		<path style="fill:#FAAAAA;" d="M293.975,241.065c-10.084,10.084-23.601,15.663-37.975,15.663v-21.669    c8.368,0,16.735-3.219,22.742-9.225L293.975,241.065z"/>
		<polygon style="fill:#7C8388;" points="314.57,321.091 256,391.461 197.43,321.091 223.818,321.091 256,357.992 288.182,321.091       "/>
		<polygon style="fill:#575F64;" points="288.182,321.091 314.57,321.091 256,391.461 256,357.992   "/>
	</g>
</g>















</svg>
