<?xml version="1.0" encoding="UTF-8" standalone="no"?>
<!-- Generator: Adobe Illustrator 21.1.0, SVG Export Plug-In . SVG Version: 6.00 Build 0)  -->
<svg xmlns:dc="http://purl.org/dc/elements/1.1/" xmlns:cc="http://creativecommons.org/ns#" xmlns:rdf="http://www.w3.org/1999/02/22-rdf-syntax-ns#" xmlns:svg="http://www.w3.org/2000/svg" xmlns="http://www.w3.org/2000/svg" xmlns:sodipodi="http://sodipodi.sourceforge.net/DTD/sodipodi-0.dtd" xmlns:inkscape="http://www.inkscape.org/namespaces/inkscape" version="1.1" id="Capa_1" x="0px" y="0px" width="100" height="27" viewBox="0 0 100 27" xml:space="preserve" sodipodi:docname="SENATI.svg" inkscape:version="0.92.2 (5c3e80d, 2017-08-06)"><title id="title848">Senati Perú logo</title><metadata id="metadata29"><rdf:RDF><cc:Work rdf:about=""><dc:format>image/svg+xml</dc:format><dc:type rdf:resource="http://purl.org/dc/dcmitype/StillImage"/><dc:title>Senati Perú logo</dc:title><cc:license rdf:resource="http://scripts.sil.org/OFL"/></cc:Work><cc:License rdf:about="http://scripts.sil.org/OFL"><cc:permits rdf:resource="http://scripts.sil.org/pub/OFL/Reproduction"/><cc:permits rdf:resource="http://scripts.sil.org/pub/OFL/Distribution"/><cc:permits rdf:resource="http://scripts.sil.org/pub/OFL/Embedding"/><cc:permits rdf:resource="http://scripts.sil.org/pub/OFL/DerivativeWorks"/><cc:requires rdf:resource="http://scripts.sil.org/pub/OFL/Notice"/><cc:requires rdf:resource="http://scripts.sil.org/pub/OFL/Attribution"/><cc:requires rdf:resource="http://scripts.sil.org/pub/OFL/ShareAlike"/><cc:requires rdf:resource="http://scripts.sil.org/pub/OFL/DerivativeRenaming"/><cc:requires rdf:resource="http://scripts.sil.org/pub/OFL/BundlingWhenSelling"/></cc:License></rdf:RDF></metadata><defs id="defs27"/><sodipodi:namedview pagecolor="#ffffff" bordercolor="#666666" borderopacity="1" objecttolerance="10" gridtolerance="10" guidetolerance="10" inkscape:pageopacity="0" inkscape:pageshadow="2" inkscape:window-width="1366" inkscape:window-height="705" id="namedview25" showgrid="false" inkscape:showpageshadow="false" inkscape:zoom="1" inkscape:cx="47.576441" inkscape:cy="18.540523" inkscape:window-x="-8" inkscape:window-y="-8" inkscape:window-maximized="1" inkscape:current-layer="Capa_1"/><style type="text/css" id="style2">
	.st0{fill:#0A39E4;}
</style><g transform="matrix(0.10854256,0,0,0.10854256,-0.81997276,-18.69971)" id="Layer1000" style="fill:#0a39e4;fill-opacity:1"><g id="Layer1001" style="fill:#0a39e4;fill-opacity:1"><path style="fill:#0a39e4;fill-opacity:1;fill-rule:evenodd" d="M 66.316406,0 0,116.04688 l 28.53125,49.92773 0.361328,0.62305 0.357422,0.63672 h 139.39258 l 17.67578,-30.91602 -17.67578,-30.93164 -57.28711,0.01 -5.49805,-9.619136 4.35938,-7.626953 h 68.29492 l 27.52539,48.167969 -27.52539,48.16797 H 39.107422 l 0.363281,0.6289 0.363281,0.63672 26.482422,46.34571 H 198.99414 l 66.2832,-116.05078 -28.51367,-49.929692 -0.36328,-0.625 -0.36328,-0.632813 H 96.630859 L 78.96875,95.777344 96.630859,126.69531 h 57.240231 l 5.52539,9.63086 -4.35546,7.61133 H 86.769531 L 59.248047,95.777344 86.769531,47.611328 H 226.18945 l -0.36523,-0.626953 -0.35938,-0.642578 -15.33203,-26.835938 h 0.002 L 198.99414,0 Z M 386.16406,55.740234 c -28.73998,7.3e-4 -41.15665,15.836688 -45.16015,22.644532 l -0.63672,1.076172 v 23.453122 l 0.72851,1.14063 c 4.6148,7.1831 11.67476,15.31708 37.22266,20.98828 l 11.06445,2.43555 c 9.7489,2.1805 12.98301,4.90478 14.81641,7.55468 v 10.46485 c -2.8184,4.0139 -8.94531,8.16992 -18.03711,8.16992 -11.322,0 -16.4434,-5.80898 -18.0293,-8.14258 V 130.9668 l -27.76953,0.002 v 21.51367 l 0.65234,1.0918 c 4.1083,6.8386 16.72659,22.77344 45.14649,22.77344 27.3034,0 39.90724,-14.27614 44.99414,-22.77344 l 0.6543,-1.0918 v -25.99804 l -0.70117,-1.11329 c -5.462,-8.8685 -13.79351,-15.8761 -36.69141,-21.2207 l -11.10938,-2.5918 c -10.7185,-2.461092 -13.60083,-5.023487 -15.17773,-7.275387 l 0.002,-7.882812 c 2.7508,-4.0037 8.8443,-8.134766 18.0293,-8.134766 9.3342,0 15.47326,4.284703 18.03516,8.095703 v 13.22461 h 27.61718 v -20.125 l -0.64453,-1.089844 c -4.0163,-6.801443 -16.44392,-22.630125 -45.0039,-22.63086 z m 63.36914,2.132813 V 174.20703 h 80.35742 v -22.20508 h -52.10156 v -26.3789 h 47.29883 V 103.42188 H 477.78906 V 80.089844 h 50.77735 V 57.873047 Z m 103.15625,0 V 174.20703 h 27.10352 v -70.50195 l 38.95117,70.50195 h 30.50391 V 57.873047 h -27.25977 v 70.208983 l -38.7793,-70.208983 z m 147.57227,0 -33.70703,100.753903 -0.0742,15.58789 h 23.30664 l 9.63477,-30.16015 0.27539,-0.85742 h 34.10937 l 9.90039,31.01757 h 24.95313 V 159.11523 L 734.70117,57.876953 Z m 68.16992,0 v 22.216797 h 30.92188 v 94.117186 h 28.44336 V 80.089844 h 30.75585 V 57.873047 Z m 109.60938,0 V 174.20703 h 28.2539 V 57.873047 Z m -161.08985,32.0625 10.19922,32.255863 h -20.62305 z" transform="translate(14.5686,181.5892)" id="path2" inkscape:connector-curvature="0"/></g><path id="path17" style="fill:#0a39e4;fill-opacity:1;fill-rule:evenodd" d="m 65.3645,368.4185 h 1.4524 l -1.4369,9.1997 h -1.332 l -0.7813,-5.018 -0.7364,5.018 h -1.3252 l -1.5384,-9.1997 h 1.4525 l 0.7262,4.9268 0.666,-4.9268 h 1.4506 l 0.7262,4.9268 z m 8.1018,0 h 1.4524 l -1.4369,9.1997 h -1.332 l -0.7813,-5.018 -0.7365,5.018 h -1.3251 l -1.5384,-9.1997 h 1.4524 l 0.7263,4.9268 0.6659,-4.9268 h 1.4506 l 0.7262,4.9268 z m 8.1017,0 h 1.4525 l -1.437,9.1997 h -1.3319 l -0.7813,-5.018 -0.7365,5.018 h -1.3251 l -1.5384,-9.1997 h 1.4524 l 0.7262,4.9268 0.666,-4.9268 h 1.4506 l 0.7262,4.9268 z m 2.4006,7.8162 h 1.3836 v 1.3835 h -1.3836 z m 2.3387,1.3835 v -9.1997 h 2.077 c 0.5489,0 1.0428,0.1445 1.4851,0.4337 0.3769,0.2461 0.6471,0.6229 0.8088,1.134 0.0878,0.2754 0.1307,0.6023 0.1307,0.9791 0,0.6144 -0.1634,1.1083 -0.4903,1.4817 -0.1377,0.1549 -0.2995,0.2737 -0.4854,0.358 0.3029,0.117 0.5628,0.3493 0.7762,0.6969 0.1428,0.234 0.2478,0.537 0.3149,0.907 0.0327,0.1926 0.0499,0.406 0.0499,0.6418 0,0.5817 -0.1084,1.0756 -0.327,1.4834 -0.172,0.3149 -0.4147,0.5696 -0.7262,0.7606 -0.3528,0.2151 -0.702,0.3235 -1.048,0.3235 z m 1.497,-1.3733 h 0.58 c 0.4698,0 0.795,-0.2425 0.9758,-0.7262 0.0636,-0.1651 0.0963,-0.3562 0.0963,-0.5713 0,-0.5145 -0.0998,-0.8896 -0.2977,-1.1254 -0.1738,-0.2151 -0.4319,-0.3235 -0.7744,-0.3235 h -0.58 z m 0,-4.0681 h 0.58 c 0.4303,0 0.7193,-0.2099 0.8673,-0.6315 0.0533,-0.1584 0.0809,-0.3511 0.0809,-0.5817 0,-0.3837 -0.0929,-0.6728 -0.2771,-0.8673 -0.172,-0.1824 -0.3957,-0.2736 -0.6711,-0.2736 h -0.58 z m 4.3711,5.4414 v -9.1997 h 3.9441 v 1.3836 h -2.5606 v 2.5296 h 1.8706 v 1.3836 h -1.8706 v 2.5194 h 2.5606 v 1.3835 z m 6.2846,-3.8925 v 3.8925 h -1.3835 v -9.1997 H 98.46 v 3.9132 h 1.6727 v -3.9132 h 1.3835 v 9.1997 h -1.3835 v -3.8925 z m 6.0075,1.7758 -0.339,2.1167 h -1.4421 l 1.5592,-9.1997 h 1.9101 l 1.5384,9.1997 h -1.4523 l -0.3288,-2.1167 z m 0.7245,-4.9766 -0.5128,3.6241 h 1.0273 z m 5.2262,-2.1064 1.8379,6.1779 v -6.1779 h 1.3837 v 9.1997 h -1.487 l -1.9101,-5.8905 v 5.8905 h -1.3835 v -9.1997 z m 6.6374,9.3133 c -0.6144,0 -1.134,-0.2133 -1.5609,-0.6402 -0.4285,-0.4268 -0.6418,-0.9447 -0.6418,-1.5521 v -5.0371 c 0,-0.6074 0.2151,-1.127 0.647,-1.5556 0.4302,-0.4285 0.9482,-0.6419 1.5557,-0.6419 0.6127,0 1.1306,0.2151 1.5574,0.647 0.425,0.4303 0.6384,0.9482 0.6384,1.5522 v 1.0498 h -1.4352 v -1.0738 c 0,-0.222 -0.0792,-0.4113 -0.2357,-0.5679 -0.1566,-0.1566 -0.3459,-0.234 -0.5697,-0.234 -0.2185,0 -0.4061,0.0774 -0.5627,0.234 -0.1548,0.1566 -0.2323,0.3459 -0.2323,0.5662 v 5.0439 c 0,0.2202 0.0775,0.4095 0.2323,0.5626 0.1566,0.1549 0.3442,0.2324 0.5627,0.2324 0.2238,0 0.4131,-0.0775 0.5697,-0.2324 0.1565,-0.1548 0.2357,-0.3424 0.2357,-0.5645 v -1.2647 h 1.4352 v 1.2802 c 0,0.611 -0.2151,1.1307 -0.6471,1.5574 -0.4302,0.4252 -0.9464,0.6385 -1.5487,0.6385 z m 3.323,-0.1136 v -9.1997 h 3.9441 v 1.3836 h -2.5606 v 2.5296 h 1.8706 v 1.3836 h -1.8706 v 2.5194 h 2.5606 v 1.3835 z m 4.9011,-1.3835 h 1.3835 v 1.3835 h -1.3835 z m 3.8976,-7.8162 1.8379,6.1779 v -6.1779 h 1.3837 v 9.1997 h -1.487 l -1.9101,-5.8905 v 5.8905 h -1.3835 v -9.1997 z m 4.4606,9.1997 v -9.1997 h 3.9441 v 1.3836 h -2.5606 v 2.5296 h 1.8706 v 1.3836 h -1.8706 v 2.5194 h 2.5606 v 1.3835 z m 6.3775,-7.8161 h -1.4713 v -1.3836 h 4.321 v 1.3836 h -1.4662 v 7.8161 h -1.3835 z m 7.6371,-1.807 h 1.1289 l -3.8305,10.0568 h -1.1306 z m 3.8668,7.5064 -0.339,2.1167 h -1.442 l 1.5591,-9.1997 h 1.9101 l 1.5384,9.1997 h -1.4523 l -0.3288,-2.1167 z m 0.7246,-4.9766 -0.5128,3.6241 h 1.0273 z m 5.2261,-2.1064 1.8379,6.1779 v -6.1779 h 1.3837 v 9.1997 h -1.4869 l -1.9102,-5.8905 v 5.8905 h -1.3835 v -9.1997 z m 5.8115,1.3836 h -1.4714 v -1.3836 h 4.3211 v 1.3836 h -1.4662 v 7.8161 h -1.3835 z m 5.9937,-1.4869 c 0.6127,0 1.1323,0.2152 1.5625,0.6454 0.4286,0.4302 0.6437,0.9482 0.6437,1.5556 v 5.0146 c 0,0.611 -0.2151,1.1306 -0.6471,1.5591 -0.4302,0.4286 -0.9498,0.6419 -1.5591,0.6419 -0.6109,0 -1.1272,-0.2152 -1.5539,-0.6453 -0.4251,-0.4302 -0.6384,-0.9483 -0.6384,-1.5557 v -5.0146 c 0,-0.6109 0.2151,-1.1306 0.6469,-1.5591 0.4303,-0.4284 0.9449,-0.6419 1.5454,-0.6419 z m 0.7606,2.1734 c 0,-0.2219 -0.0774,-0.4078 -0.2305,-0.5609 -0.1549,-0.1532 -0.3443,-0.2289 -0.5662,-0.2289 -0.2203,0 -0.4095,0.0757 -0.5679,0.2289 -0.1566,0.1531 -0.2358,0.339 -0.2358,0.5609 v 5.0284 c 0,0.2185 0.0792,0.4044 0.2358,0.5576 0.1584,0.1548 0.3476,0.2323 0.5679,0.2323 0.2219,0 0.4113,-0.0775 0.5662,-0.2323 0.1531,-0.1532 0.2305,-0.3391 0.2305,-0.5576 z m 4.2126,-2.0701 1.838,6.1779 v -6.1779 h 1.3836 v 9.1997 h -1.4869 l -1.9101,-5.8905 v 5.8905 h -1.3836 v -9.1997 z m 5.8441,9.1997 h -1.3835 v -9.1997 h 1.3835 z m 3.4211,-9.303 c 0.6127,0 1.1323,0.2152 1.5626,0.6454 0.4285,0.4302 0.6436,0.9482 0.6436,1.5556 v 5.0146 c 0,0.611 -0.2151,1.1306 -0.647,1.5591 -0.4303,0.4286 -0.9499,0.6419 -1.5592,0.6419 -0.6108,0 -1.1272,-0.2152 -1.5539,-0.6453 -0.4251,-0.4302 -0.6384,-0.9483 -0.6384,-1.5557 v -5.0146 c 0,-0.6109 0.2151,-1.1306 0.647,-1.5591 0.4302,-0.4284 0.9448,-0.6419 1.5453,-0.6419 z m 0.7606,2.1734 c 0,-0.2219 -0.0774,-0.4078 -0.2305,-0.5609 -0.1548,-0.1532 -0.3442,-0.2289 -0.5662,-0.2289 -0.2202,0 -0.4095,0.0757 -0.5679,0.2289 -0.1566,0.1531 -0.2357,0.339 -0.2357,0.5609 v 5.0284 c 0,0.2185 0.0791,0.4044 0.2357,0.5576 0.1584,0.1548 0.3477,0.2323 0.5679,0.2323 0.222,0 0.4114,-0.0775 0.5662,-0.2323 0.1531,-0.1532 0.2305,-0.3391 0.2305,-0.5576 z m 4.0476,3.2371 v 3.8925 h -1.3836 v -9.1997 h 1.3836 v 3.9132 h 1.6726 v -3.9132 h 1.3835 v 9.1997 h -1.3835 v -3.8925 z m 5.6873,3.8925 h -1.3835 v -9.1997 h 3.9441 v 1.3836 h -2.5606 v 2.5296 h 1.8706 v 1.3836 h -1.8706 z m 5.7099,0.1136 c -0.6109,0 -1.1272,-0.2133 -1.5539,-0.6385 -0.4251,-0.425 -0.6384,-0.9396 -0.6384,-1.5453 v -7.1295 h 1.3525 v 7.1174 c 0,0.2187 0.0792,0.4045 0.2358,0.5594 0.1584,0.1549 0.3476,0.2323 0.5679,0.2323 0.2219,0 0.4113,-0.0774 0.5662,-0.2323 0.153,-0.1549 0.2305,-0.3407 0.2305,-0.5594 v -7.1174 h 1.4456 v 7.1295 c 0,0.6161 -0.2151,1.1341 -0.6471,1.554 -0.4302,0.4199 -0.9499,0.6298 -1.5591,0.6298 z m 3.4297,-0.1136 v -9.1997 h 3.9441 v 1.3836 h -2.5606 v 2.5296 h 1.8706 v 1.3836 h -1.8706 v 2.5194 h 2.5606 v 1.3835 z m 6.4601,-9.1997 1.8379,6.1779 v -6.1779 h 1.3836 v 9.1997 h -1.4869 l -1.9101,-5.8905 v 5.8905 h -1.3835 v -9.1997 z m 5.8114,1.3836 h -1.4713 v -1.3836 h 4.321 v 1.3836 h -1.4662 v 7.8161 h -1.3835 z m 3.9631,7.8161 v -9.1997 h 3.9442 v 1.3836 h -2.5606 v 2.5296 h 1.8706 v 1.3836 h -1.8706 v 2.5194 h 2.5606 v 1.3835 z m 9.4957,-2.2836 c 0.0104,0.6419 -0.1566,1.1891 -0.5007,1.6418 -0.2254,0.3097 -0.5438,0.5247 -0.9551,0.6505 -0.222,0.0705 -0.4783,0.1049 -0.7709,0.1049 -0.5456,0 -0.9947,-0.1342 -1.3509,-0.4044 -0.296,-0.2237 -0.5317,-0.5232 -0.7072,-0.9034 -0.1739,-0.3787 -0.2754,-0.8141 -0.3013,-1.3097 l 1.3148,-0.0895 c 0.0619,0.5336 0.2047,0.9207 0.4285,1.1599 0.1653,0.1807 0.3545,0.2668 0.5697,0.2565 0.3028,-0.0104 0.5454,-0.1583 0.7262,-0.4424 0.0946,-0.1445 0.1428,-0.3475 0.1428,-0.6091 0,-0.3872 -0.1738,-0.7676 -0.5198,-1.1444 -0.2753,-0.2582 -0.6866,-0.6453 -1.2356,-1.1616 -0.4594,-0.444 -0.7846,-0.8414 -0.9722,-1.1942 -0.2048,-0.3959 -0.308,-0.826 -0.308,-1.2889 0,-0.8346 0.2805,-1.4679 0.8432,-1.8982 0.3476,-0.2581 0.7778,-0.3872 1.2924,-0.3872 0.4956,0 0.9189,0.1119 1.2734,0.3339 0.2718,0.1721 0.4922,0.4113 0.6608,0.721 0.1686,0.3081 0.2719,0.6609 0.308,1.0618 l -1.3422,0.2426 c -0.0362,-0.3768 -0.1447,-0.6694 -0.3219,-0.8776 -0.1273,-0.1548 -0.3114,-0.2323 -0.5489,-0.2323 -0.2513,0 -0.444,0.1118 -0.5782,0.3373 -0.1085,0.1806 -0.1617,0.4061 -0.1617,0.6745 0,0.4199 0.1824,0.8484 0.5454,1.2838 0.1377,0.1653 0.3442,0.3596 0.6161,0.5851 0.3236,0.2684 0.5369,0.456 0.6419,0.5627 0.339,0.3424 0.604,0.6798 0.7915,1.0137 0.0878,0.1531 0.1584,0.2976 0.2134,0.4319 0.1309,0.3252 0.1997,0.6195 0.2065,0.881 z" inkscape:connector-curvature="0"/></g></svg>